<svg width="42" height="42" viewBox="0 0 42 42" fill="none" xmlns="http://www.w3.org/2000/svg">
<path d="M27.0551 11.3105H14.8352C12.8847 11.3105 11.2979 12.8974 11.2979 14.8479V27.0678C11.2979 29.0182 12.8847 30.6056 14.8352 30.6056H27.0551C29.0055 30.6056 30.5929 29.0187 30.5929 27.0678V14.8479C30.5929 12.8974 29.006 11.3105 27.0551 11.3105ZM20.9451 27.3099C17.443 27.3099 14.5935 24.4604 14.5935 20.9578C14.5935 17.4557 17.443 14.6062 20.9451 14.6062C24.4477 14.6062 27.2972 17.4557 27.2972 20.9578C27.2972 24.46 24.4473 27.3099 20.9451 27.3099ZM27.5013 15.9195C26.6723 15.9195 25.9981 15.2453 25.9981 14.4167C25.9981 13.5881 26.6723 12.9139 27.5013 12.9139C28.3299 12.9139 29.0042 13.5881 29.0042 14.4167C29.0042 15.2453 28.3299 15.9195 27.5013 15.9195Z" fill="#3B398B"/>
<path d="M20.9454 17.29C18.9237 17.29 17.2775 18.9354 17.2775 20.9571C17.2775 22.9797 18.9237 24.6255 20.9454 24.6255C22.9681 24.6255 24.613 22.9797 24.613 20.9571C24.613 18.9358 22.9676 17.29 20.9454 17.29Z" fill="#3B398B"/>
<path d="M20.9453 0.402344C9.62393 0.402344 0.445312 9.58096 0.445312 20.9023C0.445312 32.2237 9.62393 41.4023 20.9453 41.4023C32.2667 41.4023 41.4453 32.2237 41.4453 20.9023C41.4453 9.58096 32.2667 0.402344 20.9453 0.402344ZM33.2766 27.0676C33.2766 30.4985 30.4862 33.2889 27.0553 33.2889H14.8354C11.4049 33.2889 8.61398 30.4985 8.61398 27.0676V14.8477C8.61398 11.4172 11.4049 8.62628 14.8354 8.62628H27.0553C30.4862 8.62628 33.2766 11.4172 33.2766 14.8477V27.0676Z" fill="#3B398B"/>
</svg>
