<svg width="26" height="26" viewBox="0 0 26 26" fill="none" xmlns="http://www.w3.org/2000/svg">
<path d="M22.1909 3.80621C17.1134 -1.26981 8.88224 -1.26859 3.80621 3.80901C-1.26981 8.88661 -1.26859 17.1177 3.80901 22.1937C8.88661 27.2698 17.1177 27.2685 22.1937 22.1909C24.6315 19.7524 26.0007 16.4453 25.9999 12.9972C25.9992 9.54966 24.6291 6.2436 22.1909 3.80621ZM19.688 18.1088C19.6874 18.1094 19.6869 18.11 19.6863 18.1105V18.1062L19.0276 18.7605C18.1757 19.6231 16.9351 19.9781 15.7559 19.6965C14.5679 19.3785 13.4385 18.8724 12.4106 18.1972C11.4556 17.5869 10.5706 16.8734 9.77162 16.0695C9.03646 15.3398 8.376 14.5384 7.79994 13.6775C7.16985 12.7512 6.67113 11.7421 6.31795 10.6789C5.91307 9.42986 6.24858 8.05933 7.18463 7.13857L7.95594 6.36726C8.17039 6.15184 8.51885 6.15108 8.73421 6.36553C8.73477 6.36609 8.73538 6.36665 8.73594 6.36726L11.1712 8.80256C11.3867 9.01701 11.3874 9.36547 11.173 9.58084C11.1724 9.58139 11.1719 9.58195 11.1712 9.58256L9.74125 11.0126C9.33094 11.4184 9.27935 12.0633 9.61994 12.5292C10.1371 13.2391 10.7095 13.907 11.3316 14.5269C12.0252 15.2235 12.7793 15.8572 13.5849 16.4206C14.0504 16.7453 14.6815 16.6905 15.0842 16.2906L16.4665 14.8866C16.681 14.6712 17.0295 14.6704 17.2448 14.8849C17.2454 14.8854 17.2459 14.886 17.2465 14.8866L19.6862 17.3306C19.9017 17.545 19.9024 17.8934 19.688 18.1088Z" fill="#3B398B"/>
</svg>
