<svg width="42" height="42" viewBox="0 0 42 42" fill="none" xmlns="http://www.w3.org/2000/svg">
<path d="M20.9453 41.4023C32.2672 41.4023 41.4453 32.2242 41.4453 20.9023C41.4453 9.58051 32.2672 0.402344 20.9453 0.402344C9.62348 0.402344 0.445312 9.58051 0.445312 20.9023C0.445312 32.2242 9.62348 41.4023 20.9453 41.4023Z" fill="#3B398B"/>
<path fill-rule="evenodd" clip-rule="evenodd" d="M20.1709 29.8936H21.7799C21.7799 29.8936 22.266 29.8403 22.5141 29.5728C22.7425 29.3272 22.7352 28.866 22.7352 28.866C22.7352 28.866 22.7038 26.7071 23.7058 26.3891C24.6935 26.076 25.9619 28.4757 27.3064 29.3985C28.323 30.0968 29.0955 29.9437 29.0955 29.9437L32.6903 29.8936C32.6903 29.8936 34.5708 29.7778 33.6791 28.2992C33.6061 28.1783 33.1599 27.2055 31.0064 25.2066C28.7524 23.1145 29.0542 23.4529 31.7694 19.834C33.423 17.6301 34.084 16.2846 33.8776 15.7083C33.6806 15.1594 32.4644 15.3045 32.4644 15.3045L28.4169 15.3297C28.4169 15.3297 28.1169 15.2888 27.8944 15.4218C27.6769 15.5523 27.537 15.8563 27.537 15.8563C27.537 15.8563 26.8964 17.5618 26.042 19.0122C24.2397 22.0727 23.519 22.2342 23.2245 22.0441C22.5393 21.6012 22.7103 20.2649 22.7103 19.3155C22.7103 16.3496 23.1602 15.113 21.8344 14.7929C21.3944 14.6865 21.0706 14.6164 19.9455 14.6051C18.5013 14.5901 17.2789 14.6094 16.5868 14.9486C16.1263 15.174 15.7711 15.6765 15.9875 15.7054C16.255 15.7412 16.8609 15.8687 17.1821 16.3061C17.5968 16.8704 17.5822 18.1377 17.5822 18.1377C17.5822 18.1377 17.8205 21.629 17.0257 22.0628C16.4801 22.3602 15.7317 21.7529 14.1249 18.9763C13.3016 17.5541 12.68 15.982 12.68 15.982C12.68 15.982 12.5601 15.6882 12.3463 15.5311C12.0869 15.3407 11.7244 15.28 11.7244 15.28L7.87818 15.3052C7.87818 15.3052 7.3008 15.3213 7.08885 15.5724C6.90029 15.7956 7.07387 16.2575 7.07387 16.2575C7.07387 16.2575 10.085 23.3023 13.4945 26.8525C16.6208 30.1074 20.1709 29.8936 20.1709 29.8936Z" fill="white"/>
</svg>
