<svg width="32" height="32" viewBox="0 0 32 32" fill="none" xmlns="http://www.w3.org/2000/svg">
<path d="M20.3606 8.51172H11.0104C9.51803 8.51172 8.30383 9.71869 8.30383 11.2022V20.4967C8.30383 21.9802 9.51803 23.1875 11.0104 23.1875H20.3606C21.853 23.1875 23.0675 21.9806 23.0675 20.4967V11.2022C23.0675 9.71869 21.8533 8.51172 20.3606 8.51172ZM15.6855 20.6808C13.0058 20.6808 10.8256 18.5136 10.8256 15.8495C10.8256 13.1857 13.0058 11.0184 15.6855 11.0184C18.3656 11.0184 20.5458 13.1857 20.5458 15.8495C20.5458 18.5132 18.3652 20.6808 15.6855 20.6808ZM20.702 12.0173C20.0677 12.0173 19.5518 11.5045 19.5518 10.8742C19.5518 10.244 20.0677 9.7312 20.702 9.7312C21.336 9.7312 21.8519 10.244 21.8519 10.8742C21.8519 11.5045 21.336 12.0173 20.702 12.0173Z" fill="white"/>
<path d="M15.6858 13.0605C14.1389 13.0605 12.8793 14.312 12.8793 15.8497C12.8793 17.3881 14.1389 18.6399 15.6858 18.6399C17.2335 18.6399 18.4921 17.3881 18.4921 15.8497C18.4921 14.3123 17.2331 13.0605 15.6858 13.0605Z" fill="white"/>
<path d="M15.6857 0.21582C7.02307 0.21582 0 7.19709 0 15.8082C0 24.4192 7.02307 31.4005 15.6857 31.4005C24.3483 31.4005 31.3714 24.4192 31.3714 15.8082C31.3714 7.19709 24.3483 0.21582 15.6857 0.21582ZM25.1211 20.4974C25.1211 23.107 22.9859 25.2294 20.3608 25.2294H11.0106C8.38582 25.2294 6.25031 23.107 6.25031 20.4974V11.203C6.25031 8.59376 8.38582 6.47096 11.0106 6.47096H20.3608C22.9859 6.47096 25.1211 8.59376 25.1211 11.203V20.4974Z" fill="white"/>
</svg>
