<svg width="32" height="32" viewBox="0 0 32 32" fill="none" xmlns="http://www.w3.org/2000/svg">
<path d="M16.2809 31.4002C24.9335 31.4002 31.9477 24.4194 31.9477 15.808C31.9477 7.19669 24.9335 0.21582 16.2809 0.21582C7.6284 0.21582 0.614136 7.19669 0.614136 15.808C0.614136 24.4194 7.6284 31.4002 16.2809 31.4002Z" fill="white"/>
<path d="M25.8774 11.4216C25.206 11.7178 24.4838 11.9182 23.7264 12.0077C24.4997 11.5466 25.0932 10.817 25.3733 9.94621C24.6497 10.3734 23.8479 10.6833 22.9953 10.8504C22.3122 10.1263 21.3389 9.67383 20.2612 9.67383C18.1934 9.67383 16.5164 11.3429 16.5164 13.4008C16.5164 13.6929 16.5496 13.9773 16.6138 14.2502C13.5016 14.0948 10.7421 12.6112 8.89494 10.3556C8.57265 10.906 8.38777 11.5466 8.38777 12.2295C8.38777 13.5223 9.04938 14.6635 10.0537 15.3317C9.44008 15.3125 8.86226 15.1449 8.35761 14.865C8.35733 14.8809 8.35733 14.8967 8.35733 14.9123C8.35733 16.7181 9.6487 18.2243 11.3615 18.5664C11.0476 18.652 10.7161 18.6973 10.3751 18.6973C10.1332 18.6973 9.89893 18.6743 9.67048 18.6309C10.1469 20.1112 11.5296 21.1888 13.1687 21.2191C11.8868 22.2189 10.2723 22.8145 8.51736 22.8145C8.21574 22.8145 7.91691 22.797 7.62451 22.7623C9.2809 23.8202 11.2498 24.4369 13.3645 24.4369C20.2525 24.4369 24.0194 18.7579 24.0194 13.8325C24.0194 13.671 24.0158 13.51 24.0085 13.3505C24.7408 12.8252 25.3755 12.1689 25.8774 11.4216Z" fill="#3B398B"/>
</svg>
