<svg width="32" height="32" viewBox="0 0 32 32" fill="none" xmlns="http://www.w3.org/2000/svg">
<path d="M15.9929 31.4005C24.6043 31.4005 31.5852 24.4196 31.5852 15.8082C31.5852 7.19675 24.6043 0.21582 15.9929 0.21582C7.38144 0.21582 0.400513 7.19675 0.400513 15.8082C0.400513 24.4196 7.38144 31.4005 15.9929 31.4005Z" fill="white"/>
<path fill-rule="evenodd" clip-rule="evenodd" d="M15.4038 22.6468H16.6276C16.6276 22.6468 16.9973 22.6062 17.186 22.4028C17.3597 22.216 17.3542 21.8652 17.3542 21.8652C17.3542 21.8652 17.3303 20.2231 18.0924 19.9813C18.8437 19.7431 19.8085 21.5684 20.831 22.2702C21.6043 22.8013 22.1919 22.6849 22.1919 22.6849L24.926 22.6468C24.926 22.6468 26.3564 22.5587 25.6782 21.4341C25.6226 21.3421 25.2832 20.6022 23.6453 19.0818C21.9309 17.4906 22.1605 17.748 24.2256 14.9954C25.4833 13.3191 25.9861 12.2957 25.8291 11.8574C25.6793 11.4399 24.7543 11.5503 24.7543 11.5503L21.6757 11.5695C21.6757 11.5695 21.4475 11.5383 21.2783 11.6395C21.1129 11.7387 21.0064 11.97 21.0064 11.97C21.0064 11.97 20.5192 13.2672 19.8693 14.3703C18.4985 16.6981 17.9504 16.821 17.7264 16.6765C17.2052 16.3396 17.3353 15.3231 17.3353 14.601C17.3353 12.3452 17.6774 11.4046 16.669 11.1611C16.3344 11.0803 16.0881 11.0269 15.2323 11.0183C14.1339 11.0069 13.2041 11.0216 12.6777 11.2796C12.3275 11.451 12.0573 11.8332 12.2219 11.8552C12.4253 11.8824 12.8862 11.9794 13.1305 12.3121C13.446 12.7413 13.4348 13.7052 13.4348 13.7052C13.4348 13.7052 13.6161 16.3607 13.0115 16.6906C12.5965 16.9169 12.0273 16.4549 10.8052 14.3431C10.179 13.2613 9.70616 12.0656 9.70616 12.0656C9.70616 12.0656 9.615 11.8421 9.4524 11.7226C9.25505 11.5778 8.97933 11.5317 8.97933 11.5317L6.05392 11.5508C6.05392 11.5508 5.61477 11.5631 5.45356 11.754C5.31014 11.9238 5.44216 12.2752 5.44216 12.2752C5.44216 12.2752 7.73245 17.6334 10.3257 20.3337C12.7036 22.8094 15.4038 22.6468 15.4038 22.6468Z" fill="#3B398B"/>
</svg>
