<svg width="31" height="31" viewBox="0 0 31 31" fill="none" xmlns="http://www.w3.org/2000/svg">
<path d="M13.5693 18.4035L18.6113 15.4996L13.5693 12.5957V18.4035Z" fill="white"/>
<path d="M15.5 0C6.9409 0 0 6.9409 0 15.5C0 24.0591 6.9409 31 15.5 31C24.0591 31 31 24.0591 31 15.5C31 6.9409 24.0591 0 15.5 0ZM25.1851 15.5158C25.1851 15.5158 25.1851 18.6593 24.7864 20.1751C24.5629 21.0048 23.9087 21.659 23.079 21.8823C21.5632 22.2812 15.5 22.2812 15.5 22.2812C15.5 22.2812 9.45264 22.2812 7.921 21.8664C7.09132 21.6431 6.43713 20.9887 6.21362 20.159C5.81463 18.6593 5.81463 15.5 5.81463 15.5C5.81463 15.5 5.81463 12.3568 6.21362 10.841C6.43689 10.0113 7.10716 9.34101 7.921 9.11774C9.4368 8.71875 15.5 8.71875 15.5 8.71875C15.5 8.71875 21.5632 8.71875 23.079 9.13359C23.9087 9.35686 24.5629 10.0113 24.7864 10.841C25.2012 12.3568 25.1851 15.5158 25.1851 15.5158Z" fill="white"/>
</svg>
