<svg width="42" height="42" viewBox="0 0 42 42" fill="none" xmlns="http://www.w3.org/2000/svg">
<path d="M18.3918 24.7428L25.0602 20.9021L18.3918 17.0615V24.7428Z" fill="#3B398B"/>
<path d="M20.9453 0.402344C9.62521 0.402344 0.445312 9.58224 0.445312 20.9023C0.445312 32.2225 9.62521 41.4023 20.9453 41.4023C32.2654 41.4023 41.4453 32.2225 41.4453 20.9023C41.4453 9.58224 32.2654 0.402344 20.9453 0.402344ZM33.7547 20.9233C33.7547 20.9233 33.7547 25.0808 33.2273 27.0856C32.9317 28.1829 32.0665 29.0481 30.9692 29.3434C28.9644 29.8711 20.9453 29.8711 20.9453 29.8711C20.9453 29.8711 12.9472 29.8711 10.9215 29.3224C9.82415 29.0271 8.95893 28.1616 8.66333 27.0643C8.13563 25.0808 8.13563 20.9023 8.13563 20.9023C8.13563 20.9023 8.13563 16.7452 8.66333 14.7404C8.95862 13.6431 9.84511 12.7566 10.9215 12.4613C12.9262 11.9336 20.9453 11.9336 20.9453 11.9336C20.9453 11.9336 28.9644 11.9336 30.9692 12.4823C32.0665 12.7775 32.9317 13.6431 33.2273 14.7404C33.776 16.7452 33.7547 20.9233 33.7547 20.9233Z" fill="#3B398B"/>
</svg>
